Coordinates
version=1
nRows=35
nColumns=38
inDegrees=no

Units are S.I. units (second, meters, Newtons, ...)
If the header above contains a line with 'inDegrees', this indicates whether rotational values are in degrees (yes) or radians (no).

endheader
time	pelvis_tilt	pelvis_list	pelvis_rotation	pelvis_tx	pelvis_ty	pelvis_tz	hip_flexion_r	hip_adduction_r	hip_rotation_r	knee_angle_r	ankle_angle_r	subtalar_angle_r	mtp_angle_r	hip_flexion_l	hip_adduction_l	hip_rotation_l	knee_angle_l	ankle_angle_l	subtalar_angle_l	mtp_angle_l	lumbar_extension	lumbar_bending	lumbar_rotation	arm_flex_r	arm_add_r	arm_rot_r	elbow_flex_r	pro_sup_r	wrist_flex_r	wrist_dev_r	arm_flex_l	arm_add_l	arm_rot_l	elbow_flex_l	pro_sup_l	wrist_flex_l	wrist_dev_l
1.23752	0.384186	0.0495867	-3.04063	-0.111996	0.522964	0.0265377	1.7965	-0.447947	0.0241782	2.06254	0.508563	0	0	1.8195	-0.0910928	0.0962927	2.05223	0.506774	0	0	-0.23106	0.079265	-0.0357432	1.53161	-0.449159	0.938391	1.63565	1.44911	0	0	1.55305	-0.224888	0.999135	1.53056	1.43584	0	0
1.24749	0.385195	0.0508794	-3.04069	-0.112083	0.520638	0.0264871	1.80215	-0.44906	0.0252943	2.06805	0.508456	0	0	1.82605	-0.0931104	0.0978446	2.05831	0.506603	0	0	-0.229502	0.0806472	-0.0343693	1.53245	-0.448742	0.939792	1.63756	1.45275	0	0	1.55343	-0.223437	0.998807	1.53207	1.44167	0	0
1.25747	0.386329	0.0521732	-3.04075	-0.112118	0.518366	0.0264447	1.80772	-0.450196	0.0262712	2.07305	0.50835	0	0	1.83258	-0.0951522	0.0992785	2.06397	0.506431	0	0	-0.228005	0.0820545	-0.0330296	1.53329	-0.448291	0.940899	1.63948	1.45622	0	0	1.55381	-0.222051	0.998241	1.53353	1.44732	0	0
1.26745	0.38765	0.0534333	-3.04082	-0.112095	0.516149	0.0264121	1.81327	-0.451339	0.0271286	2.07744	0.508243	0	0	1.83911	-0.097208	0.100539	2.0691	0.506258	0	0	-0.226529	0.0834436	-0.0317435	1.53412	-0.447794	0.941692	1.6414	1.45959	0	0	1.55419	-0.220736	0.997419	1.53493	1.45281	0	0
1.27743	0.389226	0.054622	-3.04089	-0.11201	0.513985	0.0263903	1.81886	-0.452477	0.0278959	2.08116	0.508135	0	0	1.84567	-0.0992713	0.101565	2.07363	0.506085	0	0	-0.22502	0.0847682	-0.0305365	1.53496	-0.447234	0.942157	1.64328	1.46292	0	0	1.55456	-0.219495	0.996338	1.53629	1.45821	0	0
1.28741	0.391129	0.0557038	-3.04095	-0.111859	0.511873	0.0263796	1.8246	-0.453604	0.0286099	2.08419	0.508028	0	0	1.85231	-0.101339	0.102294	2.07748	0.505911	0	0	-0.223414	0.0859858	-0.0294378	1.5358	-0.446592	0.942283	1.64511	1.4663	0	0	1.55493	-0.218334	0.995006	1.53759	1.46356	0	0
1.29739	0.393423	0.0566497	-3.04098	-0.111642	0.509809	0.0263802	1.8306	-0.454721	0.0293141	2.08653	0.507921	0	0	1.85908	-0.103414	0.102676	2.08063	0.505736	0	0	-0.22164	0.0870619	-0.0284752	1.53663	-0.445847	0.942071	1.64686	1.46975	0	0	1.55529	-0.217256	0.99343	1.53886	1.46882	0	0
1.30737	0.396122	0.057435	-3.04098	-0.111359	0.507788	0.0263915	1.83691	-0.455836	0.030057	2.08827	0.507813	0	0	1.86601	-0.105507	0.102675	2.08308	0.505561	0	0	-0.21967	0.087969	-0.027666	1.53746	-0.444994	0.941537	1.64853	1.47327	0	0	1.55565	-0.216264	0.991632	1.54016	1.47379	0	0
1.31735	0.399235	0.0580463	-3.04093	-0.11101	0.505806	0.026413	1.84361	-0.456956	0.0308801	2.08949	0.507705	0	0	1.87312	-0.107626	0.102274	2.08489	0.505385	0	0	-0.217469	0.0886911	-0.0270177	1.53828	-0.44403	0.940709	1.65012	1.47685	0	0	1.556	-0.21535	0.989627	1.54152	1.47837	0	0
1.32733	0.402771	0.0584817	-3.04082	-0.110599	0.503857	0.0264436	1.85076	-0.458092	0.0318158	2.09029	0.507598	0	0	1.88048	-0.109778	0.101477	2.08617	0.505209	0	0	-0.214998	0.0892262	-0.0265299	1.5391	-0.44296	0.939622	1.65164	1.48043	0	0	1.55635	-0.214497	0.987426	1.54297	1.48249	0	0
1.33731	0.406721	0.0587516	-3.04063	-0.110131	0.501937	0.0264822	1.8584	-0.459252	0.0328815	2.09076	0.50749	0	0	1.88813	-0.111959	0.100307	2.08702	0.505032	0	0	-0.212232	0.0895871	-0.0261946	1.53992	-0.441795	0.938316	1.65309	1.484	0	0	1.5567	-0.213677	0.985034	1.54453	1.48615	0	0
1.34729	0.411042	0.0588776	-3.04036	-0.109613	0.500045	0.0265275	1.8665	-0.460451	0.034076	2.091	0.507383	0	0	1.89606	-0.114157	0.098805	2.08752	0.504854	0	0	-0.209189	0.0898006	-0.0259981	1.54073	-0.440551	0.936831	1.65449	1.48752	0	0	1.55704	-0.212859	0.982453	1.5462	1.48941	0	0
1.35727	0.415649	0.05888	-3.03999	-0.10905	0.49818	0.0265779	1.87498	-0.461703	0.0353953	2.09108	0.507275	0	0	1.90421	-0.116348	0.0970201	2.08778	0.504676	0	0	-0.205936	0.0898933	-0.0259271	1.54154	-0.439255	0.935211	1.65587	1.49094	0	0	1.55738	-0.212012	0.979695	1.54795	1.49232	0	0
1.36725	0.420408	0.0587708	-3.03949	-0.108452	0.496344	0.0266319	1.8837	-0.463022	0.0368407	2.09106	0.507168	0	0	1.91246	-0.118499	0.094999	2.08787	0.504498	0	0	-0.202603	0.0898843	-0.0259709	1.54234	-0.437943	0.933498	1.65727	1.49425	0	0	1.55771	-0.211114	0.976793	1.54981	1.49498	0	0
1.37723	0.425138	0.0585525	-3.03887	-0.107825	0.494538	0.0266874	1.89243	-0.464419	0.038421	2.09099	0.507061	0	0	1.9206	-0.120564	0.0927887	2.08785	0.504319	0	0	-0.199379	0.0897829	-0.0261217	1.54313	-0.436665	0.931742	1.65878	1.49742	0	0	1.55803	-0.210157	0.973809	1.55181	1.49746	0	0
1.38721	0.429662	0.0582263	-3.0381	-0.107176	0.492768	0.0267424	1.90098	-0.465899	0.0401484	2.09089	0.506954	0	0	1.92843	-0.122496	0.0904349	2.08778	0.50414	0	0	-0.196452	0.0895968	-0.0263716	1.54392	-0.435467	0.929985	1.66048	1.50045	0	0	1.55836	-0.209137	0.970799	1.55397	1.49984	0	0
1.39719	0.433826	0.0577979	-3.03718	-0.106513	0.491036	0.0267946	1.90914	-0.467452	0.0420276	2.09079	0.506846	0	0	1.93577	-0.124256	0.0879915	2.08768	0.503961	0	0	-0.193988	0.0893362	-0.0267073	1.5447	-0.434393	0.928269	1.66244	1.50336	0	0	1.55867	-0.208069	0.967814	1.55634	1.50216	0	0
1.40717	0.43765	0.0572895	-3.03613	-0.105841	0.489349	0.0268415	1.91693	-0.469037	0.0440485	2.09071	0.506739	0	0	1.94266	-0.125815	0.085509	2.08758	0.503781	0	0	-0.191962	0.0890192	-0.0271119	1.54547	-0.433429	0.926577	1.66461	1.50613	0	0	1.55898	-0.206937	0.964814	1.55885	1.50444	0	0
1.41715	0.441212	0.0567346	-3.03498	-0.105165	0.487708	0.0268804	1.92444	-0.470596	0.0461821	2.09066	0.506631	0	0	1.94923	-0.127168	0.0830415	2.08751	0.503601	0	0	-0.190275	0.0886716	-0.0275591	1.54624	-0.432529	0.924869	1.66689	1.50877	0	0	1.55929	-0.205718	0.96173	1.56138	1.50672	0	0
1.42713	0.444615	0.0561754	-3.03376	-0.10449	0.486118	0.0269089	1.9318	-0.472068	0.0483782	2.09063	0.506522	0	0	1.95564	-0.128329	0.0806444	2.08746	0.503421	0	0	-0.188807	0.0883266	-0.028014	1.54699	-0.431627	0.923091	1.66908	1.5113	0	0	1.55959	-0.20438	0.958474	1.56379	1.50903	0	0
1.43711	0.447868	0.0556506	-3.03253	-0.103818	0.484581	0.0269248	1.93899	-0.473401	0.0505717	2.09063	0.506413	0	0	1.96192	-0.129334	0.0783788	2.08744	0.503241	0	0	-0.18754	0.0880157	-0.0284323	1.54774	-0.430677	0.92122	1.6711	1.51373	0	0	1.55989	-0.20291	0.955004	1.56598	1.51142	0	0
1.44709	0.450907	0.055201	-3.03134	-0.103155	0.483099	0.0269265	1.94589	-0.474549	0.0526808	2.09065	0.506303	0	0	1.96801	-0.130238	0.0763203	2.08745	0.50306	0	0	-0.186542	0.0877731	-0.0287575	1.54848	-0.429665	0.91929	1.6729	1.51598	0	0	1.56018	-0.201317	0.951332	1.56793	1.51382	0	0
1.45707	0.45356	0.0548523	-3.03023	-0.102502	0.481671	0.0269129	1.95225	-0.475486	0.0546392	2.09069	0.506192	0	0	1.97372	-0.131102	0.0745353	2.08749	0.50288	0	0	-0.186004	0.0876243	-0.0289371	1.54922	-0.428613	0.917368	1.67454	1.51799	0	0	1.56046	-0.199638	0.947527	1.56973	1.51619	0	0
1.46705	0.455579	0.0546111	-3.02925	-0.101862	0.480295	0.0268841	1.95774	-0.476206	0.0564049	2.09075	0.50608	0	0	1.97872	-0.131985	0.073075	2.08756	0.5027	0	0	-0.186207	0.0875808	-0.0289277	1.54994	-0.427581	0.915559	1.67617	1.51972	0	0	1.56074	-0.197938	0.943724	1.57151	1.51851	0	0
1.47703	0.456783	0.0544711	-3.02843	-0.101236	0.478966	0.0268411	1.9621	-0.476712	0.0579624	2.09082	0.505967	0	0	1.98277	-0.13294	0.0719602	2.08764	0.502519	0	0	-0.187351	0.0876424	-0.0287048	1.55065	-0.426622	0.913948	1.67796	1.52114	0	0	1.56101	-0.196282	0.940048	1.57344	1.52076	0	0
1.48701	0.457169	0.0544234	-3.02778	-0.100624	0.477677	0.026786	1.96531	-0.477007	0.0593161	2.0909	0.505852	0	0	1.98586	-0.133995	0.07118	2.08773	0.502339	0	0	-0.189438	0.0878007	-0.028267	1.55136	-0.425756	0.912563	1.67997	1.52223	0	0	1.56128	-0.194706	0.93656	1.57558	1.52293	0	0
1.49699	0.456959	0.0544646	-3.02731	-0.100025	0.476415	0.0267217	1.96769	-0.477087	0.0604822	2.09098	0.505738	0	0	1.98826	-0.135156	0.070693	2.08784	0.502158	0	0	-0.19221	0.088045	-0.0276355	1.55205	-0.424943	0.911332	1.68215	1.52296	0	0	1.56154	-0.1932	0.933208	1.57789	1.525	0	0
1.50697	0.456399	0.0545919	-3.02701	-0.0994369	0.475169	0.0266522	1.96955	-0.476965	0.0614777	2.09106	0.505623	0	0	1.99026	-0.136416	0.070446	2.08795	0.501978	0	0	-0.195376	0.0883672	-0.0268418	1.55274	-0.424139	0.910167	1.68441	1.52334	0	0	1.5618	-0.191749	0.929927	1.58026	1.52695	0	0
1.51695	0.455838	0.054806	-3.02687	-0.0988584	0.473925	0.026582	1.97135	-0.476657	0.0623196	2.09114	0.505511	0	0	1.99231	-0.13775	0.0703651	2.08807	0.501798	0	0	-0.19852	0.0887608	-0.0259287	1.55341	-0.423266	0.908921	1.68654	1.52337	0	0	1.56205	-0.190303	0.926595	1.58251	1.52882	0	0
1.52693	0.455651	0.0551072	-3.02688	-0.0982885	0.472673	0.026516	1.9736	-0.476182	0.0630221	2.09122	0.505402	0	0	1.99486	-0.139127	0.0703687	2.08818	0.501618	0	0	-0.201192	0.0892183	-0.0249414	1.55407	-0.422239	0.907435	1.68832	1.52306	0	0	1.56229	-0.188804	0.923075	1.58439	1.53067	0	0
1.53691	0.456127	0.05549	-3.02702	-0.0977284	0.471405	0.0264593	1.97665	-0.475563	0.0635954	2.09129	0.5053	0	0	1.99824	-0.140512	0.070389	2.0883	0.501439	0	0	-0.20303	0.0897294	-0.0239189	1.55472	-0.421004	0.905603	1.68956	1.52244	0	0	1.56253	-0.187223	0.919286	1.58573	1.53252	0	0
1.54689	0.457381	0.0559402	-3.0273	-0.0971811	0.470116	0.0264165	1.98066	-0.474827	0.0640646	2.09136	0.505205	0	0	2.00259	-0.14187	0.0704036	2.08842	0.50126	0	0	-0.203878	0.0902831	-0.0228897	1.55536	-0.419564	0.903444	1.69022	1.52152	0	0	1.56276	-0.18558	0.915261	1.58649	1.5344	0	0
1.55687	0.459329	0.0564339	-3.02771	-0.0966518	0.468809	0.026392	1.98553	-0.474013	0.0644733	2.09143	0.505114	0	0	2.00777	-0.143172	0.070437	2.08854	0.501081	0	0	-0.203808	0.09087	-0.0218735	1.55599	-0.417977	0.901116	1.69043	1.52036	0	0	1.56299	-0.183953	0.911149	1.5868	1.53632	0	0
1.56685	0.461571	0.0569238	-3.02823	-0.0961473	0.467488	0.0263899	1.99077	-0.473194	0.0648776	2.09149	0.505026	0	0	2.01325	-0.144381	0.070514	2.08865	0.500902	0	0	-0.203248	0.0914758	-0.0208909	1.55661	-0.416351	0.898831	1.69041	1.51902	0	0	1.56321	-0.182435	0.907164	1.58686	1.5382	0	0
1.57683	0.463701	0.0573656	-3.02887	-0.0956747	0.466161	0.0264133	1.99584	-0.472424	0.0653226	2.09155	0.504938	0	0	2.01848	-0.145466	0.0706647	2.08876	0.500724	0	0	-0.20263	0.0920847	-0.0199552	1.55722	-0.414793	0.896812	1.69032	1.51754	0	0	1.56342	-0.181117	0.903517	1.58683	1.53999	0	0
